<?xml version="1.0" encoding="utf-8"?>
<!-- Svg Vector Icons : http://www.onlinewebfonts.com/icon -->
<!DOCTYPE svg PUBLIC "-//W3C//DTD SVG 1.1//EN" "http://www.w3.org/Graphics/SVG/1.1/DTD/svg11.dtd">
<svg version="1.1" xmlns="http://www.w3.org/2000/svg" xmlns:xlink="http://www.w3.org/1999/xlink" x="0px" y="0px" viewBox="0 0 1000 1000" enable-background="new 0 0 1000 1000" xml:space="preserve">
<metadata> Svg Vector Icons : http://www.onlinewebfonts.com/icon </metadata>
<g><g id="_x32_069a460dcf28295e231f3111e0426ac"><path d="M987.1,545.3c-5.8-40.5-19.8-78.8-41.7-114c-19.1-30.7-43.6-58-72.9-81.3l0.1-0.1L565.5,114c-0.3-0.2-0.5-0.4-0.7-0.6c-10.2-7.8-24-12.1-38.9-12.1c-14.9,0-29.3,4.3-40.4,12.2c-12,8.4-18.9,19.5-19.4,31.4c-0.4,11.1,4.8,21.7,14.9,30c19.8,15.6,39.5,31.5,59.3,47.5c19.2,15.5,38.9,31.5,58.6,47l-376.3-0.3c-43,0-72.3,20.2-78.4,54c-2.6,14.8,2,31.1,12.5,43.6c11.1,13.2,27.2,20.5,45.3,20.5l28.7,0c39.6,0,79.4-0.1,119.2-0.2l37.9-0.1L46.2,639.6l-1.4,1c-19.1,14.6-31.6,35.1-34.3,56.2c-2,16,1.7,30.6,10.8,42.3c10.9,13.9,27.8,21.6,47.7,21.6c19.6,0,39.5-7.4,56.3-20.9l184.4-150.9c-0.8,7.4-1.7,18.2-1.6,26c0.2,12.4,4.2,37.4,10.5,57.6c13,41.6,35,79.7,65.3,113.1c31.5,34.8,69.9,62.3,114.1,81.9c46.7,20.7,96.9,31.2,149.3,31.2h0.5c52.5-0.1,102.9-10.8,149.8-31.7c44.3-19.8,82.6-47.5,114-82.3c30.3-33.6,52.2-71.7,65.2-113.3c6.4-20.6,10.6-41.8,12.3-63.3C990.8,587.4,990.1,566.3,987.1,545.3z M651.2,744.7c-115.3,0-208.9-83.7-208.9-186.9c0-103.2,93.5-186.9,208.9-186.9C766.5,371,860,454.6,860,557.8C860,661,766.5,744.7,651.2,744.7z M771.6,541.4c1.7,30.8-10.6,59.4-32.2,80.6c-22,21.6-53.3,35.1-88.4,35.1c-35.1,0-66.4-13.5-88.4-35.1c-21.6-21.2-33.9-49.8-32.2-80.6c1.7-29.9,16.3-56.3,38.2-75c21.6-18.4,50.7-29.6,82.4-29.6c31.7,0,60.7,11.2,82.4,29.6C755.3,485.1,769.9,511.5,771.6,541.4z"/></g></g>
</svg>